# xmcd
#
# Track frame offsets:
#	150
#	9980
#	15750
#	24878
#	34828
#	44903
#	55450
#	68235
#	111735
#	123005
#	133200
#	142473
#	157485
#	167405
#	177360
#	188698
#	199065
#	207445
#
# Disc length: 3052 seconds
#
# Revision: 0
# Processed by: cddbd v1.5.2PL0 Copyright (c) Steve Scherf et al.
# Submitted via: EZCDAudioConverter 9.1.1.1
#
DISCID=0c0bea12
DTITLE=The Ventures - The Ventures Gold 1
DYEAR=2001
DGENRE=Country
TTITLE0=Wipe Out (와잎 아웃)   
TTITLE1=Walk Don't Run (윅 돈 런) 
TTITLE2=Moving and Grooving (무빙 앤 그루빙)   
TTITLE3=Driving Guitar (드라이빙 기타)   
TTITLE4=Jango (장고) 
TTITLE5=Pipe Line (파이프 라인)   
TTITLE6=Way Ward Nile (변덕스런 나일강) 
TTITLE7=When Megie Was Youg (메기의 추억) 
TTITLE8=Shanghied Twist (상하이 트위스트)
TTITLE9=What'D I Say (왓 아이 쎄이)  
TTITLE10=The Twist (더 트위스트)  
TTITLE11=Besame Mucho (베사메 무쵸) 
TTITLE12=Country Twist (컨츄리 트위스트)   
TTITLE13=Let's Twist Again (렛츠 트위스트 어게인)  
TTITLE14=Telstar (텔스타)
TTITLE15=Rap City (랩 시티)  
TTITLE16=Red Wing (붉은 날개) 
TTITLE17=Apache (아팟치)  
EXTD=
EXTT0=
EXTT1=
EXTT2=
EXTT3=
EXTT4=
EXTT5=
EXTT6=
EXTT7=
EXTT8=
EXTT9=
EXTT10=
EXTT11=
EXTT12=
EXTT13=
EXTT14=
EXTT15=
EXTT16=
EXTT17=
PLAYORDER=
